<svg xmlns="http://www.w3.org/2000/svg" viewBox="0 0 24 24">
  <path
    d="M23.996 12.481c-.001-.027-.011-.053-.016-.08-.008-.039-.014-.078-.031-.113-.002-.004 0-.009-.003-.013l-1-2a.502.502 0 00-.447-.275H17V5.5c0-.008-.004-.014-.004-.021-.001-.02-.009-.039-.012-.059a.5.5 0 00-.036-.134l-.002-.009-1-2A.502.502 0 0015.498 3h-7a.5.5 0 00-.447.276l-1 2c-.003.006-.002.013-.005.019-.01.022-.012.047-.019.07-.012.041-.024.082-.025.124L7 5.499V9H1.5a.5.5 0 00-.447.276l-1 2-.004.015c-.014.031-.019.065-.027.099-.007.031-.018.061-.019.093 0 .006-.003.011-.003.017v9a.5.5 0 00.5.5h23a.5.5 0 00.5-.5v-8c0-.007-.004-.013-.004-.019zM17 11h5.19l.5 1H17v-1zM8.808 4h6.382l.5 1H8.308l.5-1zm-6.999 6H7v1H1.309l.5-1zM23 20H1v-8h6.5a.5.5 0 00.5-.5V6h8v4.495l-.001.005.001.004V12.5a.5.5 0 00.5.5H23v7z" />
  <path
    d="M12.692 8.037a.497.497 0 00-.545.108l-1 1a.5.5 0 00.707.707L12 9.706V13.5a.5.5 0 001.001 0v-5a.502.502 0 00-.309-.463z" />
</svg>
